<svg width="16" height="16" viewBox="0 0 16 16" fill="none" xmlns="http://www.w3.org/2000/svg">
<path fill-rule="evenodd" clip-rule="evenodd" d="M6.51917 14H9.48212C11.5629 14 12.6032 14 13.3505 13.5097C13.674 13.2975 13.9518 13.0247 14.168 12.7071C14.6673 11.9734 14.6673 10.9519 14.6673 8.90907C14.6673 6.86627 14.6673 5.84481 14.168 5.11107C13.9518 4.79343 13.674 4.52069 13.3505 4.30845C12.8702 3.99342 12.2691 3.88082 11.3487 3.84057C10.9094 3.84057 10.5313 3.51379 10.4451 3.09091C10.3159 2.45659 9.74858 2 9.08978 2H6.91152C6.25268 2 5.68542 2.45659 5.5562 3.09091C5.47006 3.51379 5.09188 3.84057 4.65265 3.84057C3.7322 3.88082 3.13102 3.99342 2.65081 4.30845C2.32728 4.52069 2.0495 4.79343 1.83333 5.11107C1.33398 5.84481 1.33398 6.86627 1.33398 8.90907C1.33398 10.9519 1.33398 11.9734 1.83333 12.7071C2.0495 13.0247 2.32728 13.2975 2.65081 13.5097C3.39814 14 4.43848 14 6.51917 14ZM8.00065 6.18182C6.46652 6.18182 5.22287 7.40287 5.22287 8.90907C5.22287 10.4153 6.46652 11.6363 8.00065 11.6363C9.53478 11.6363 10.7785 10.4153 10.7785 8.90907C10.7785 7.40287 9.53478 6.18182 8.00065 6.18182ZM8.00065 7.27273C7.08018 7.27273 6.33398 8.00533 6.33398 8.90907C6.33398 9.8128 7.08018 10.5455 8.00065 10.5455C8.92112 10.5455 9.66732 9.8128 9.66732 8.90907C9.66732 8.00533 8.92112 7.27273 8.00065 7.27273ZM11.1488 6.72727C11.1488 6.42603 11.3975 6.18182 11.7044 6.18182H12.4451C12.7519 6.18182 13.0007 6.42603 13.0007 6.72727C13.0007 7.02853 12.7519 7.27273 12.4451 7.27273H11.7044C11.3975 7.27273 11.1488 7.02853 11.1488 6.72727Z" fill="#F8F8F8"/>
</svg>
