<svg width="17" height="17" viewBox="0 0 17 17" fill="none" xmlns="http://www.w3.org/2000/svg">
<path d="M14.0938 4.125H2.40625" stroke="black" stroke-opacity="0.8" stroke-linecap="round"/>
<path d="M12.9486 5.84375L12.6324 10.5869C12.5107 12.4121 12.4498 13.3248 11.8551 13.8811C11.2604 14.4375 10.3458 14.4375 8.51649 14.4375H7.98481C6.15551 14.4375 5.24086 14.4375 4.64616 13.8811C4.05147 13.3248 3.99063 12.4121 3.86894 10.5869L3.55273 5.84375" stroke="black" stroke-opacity="0.8" stroke-linecap="round"/>
<path d="M6.53125 7.5625L6.875 11" stroke="black" stroke-opacity="0.8" stroke-linecap="round"/>
<path d="M9.96875 7.5625L9.625 11" stroke="black" stroke-opacity="0.8" stroke-linecap="round"/>
<path d="M4.46875 4.125C4.50717 4.125 4.52638 4.125 4.54379 4.12456C5.10991 4.11021 5.60933 3.75025 5.80196 3.21772C5.80789 3.20134 5.81396 3.18312 5.82611 3.14667L5.89286 2.94643C5.94984 2.77549 5.97833 2.69002 6.01612 2.61745C6.16688 2.32792 6.44582 2.12688 6.76817 2.0754C6.84896 2.0625 6.93906 2.0625 7.11924 2.0625H9.38076C9.56094 2.0625 9.65104 2.0625 9.73183 2.0754C10.0542 2.12688 10.3331 2.32792 10.4839 2.61745C10.5217 2.69002 10.5502 2.77549 10.6071 2.94643L10.6739 3.14667C10.686 3.18307 10.6921 3.20135 10.698 3.21772C10.8907 3.75025 11.3901 4.11021 11.9562 4.12456C11.9736 4.125 11.9928 4.125 12.0312 4.125" stroke="black" stroke-opacity="0.8"/>
</svg>
