<svg width="14" height="14" viewBox="0 0 14 14" fill="none" xmlns="http://www.w3.org/2000/svg">
<path d="M6.41602 1.1665H5.24935C2.33268 1.1665 1.16602 2.33317 1.16602 5.24984V8.74984C1.16602 11.6665 2.33268 12.8332 5.24935 12.8332H8.74935C11.666 12.8332 12.8327 11.6665 12.8327 8.74984V7.58317" stroke="black" stroke-opacity="0.6" stroke-width="0.875" stroke-linecap="round" stroke-linejoin="round"/>
<path d="M9.35611 1.76157L4.75944 6.35824C4.58444 6.53324 4.40944 6.8774 4.37444 7.12824L4.12361 8.88407C4.03027 9.5199 4.47944 9.96324 5.11527 9.87574L6.87111 9.6249C7.11611 9.5899 7.46027 9.4149 7.64111 9.2399L12.2378 4.64324C13.0311 3.8499 13.4044 2.92824 12.2378 1.76157C11.0711 0.594903 10.1494 0.968237 9.35611 1.76157Z" stroke="black" stroke-opacity="0.6" stroke-width="0.875" stroke-miterlimit="10" stroke-linecap="round" stroke-linejoin="round"/>
<path d="M8.69727 2.4209C9.0881 3.81507 10.1789 4.9059 11.5789 5.30257" stroke="black" stroke-opacity="0.6" stroke-width="0.875" stroke-miterlimit="10" stroke-linecap="round" stroke-linejoin="round"/>
</svg>
