<svg width="20" height="20" viewBox="0 0 20 20" fill="none" xmlns="http://www.w3.org/2000/svg">
<path d="M3.75 3.125L16.25 16.875M12.1023 12.3124C11.489 12.87 10.6793 13.1611 9.8514 13.1216C9.02345 13.0822 8.24508 12.7155 7.6875 12.1022C7.12992 11.4889 6.83882 10.6792 6.87823 9.85128C6.91764 9.02333 7.28434 8.24495 7.89765 7.68738M10.5882 6.93054C11.2526 7.05777 11.8578 7.39714 12.3128 7.89767C12.7678 8.3982 13.0481 9.03286 13.1117 9.70632M16.2977 13.2109C18.0008 11.6859 18.75 10 18.75 10C18.75 10 16.25 4.37501 10 4.37501C9.45879 4.37427 8.91842 4.41817 8.3844 4.50626M5.78125 5.3595C2.59609 6.972 1.25 10.0001 1.25 10.0001C1.25 10.0001 3.75 15.6251 10 15.6251C11.4645 15.6366 12.9106 15.2992 14.2187 14.6407" stroke="black" stroke-opacity="0.4" stroke-width="1.25" stroke-linecap="round" stroke-linejoin="round"/>
</svg>
