<svg width="20" height="20" viewBox="0 0 20 20" fill="none" xmlns="http://www.w3.org/2000/svg">
<path d="M7.91797 11.667C9.29868 11.667 10.418 12.7863 10.418 14.167C10.418 15.5477 9.29868 16.667 7.91797 16.667C6.53726 16.667 5.41797 15.5477 5.41797 14.167C5.41797 12.7863 6.53726 11.667 7.91797 11.667Z" stroke="#121212" stroke-width="0.916667"/>
<path d="M12.0859 3.33396C10.7052 3.33396 9.58594 4.45325 9.58594 5.83396C9.58594 7.21468 10.7052 8.33396 12.0859 8.33396C13.4666 8.33396 14.5859 7.21468 14.5859 5.83396C14.5859 4.45325 13.4666 3.33396 12.0859 3.33396Z" stroke="#121212" stroke-width="0.916667"/>
<path d="M9.16803 5.8335L5.00138 5.8335M2.50132 5.8335L1.66797 5.8335" stroke="#121212" stroke-width="0.916667" stroke-linecap="round"/>
<path d="M10.8359 14.167L15.0026 14.167M17.5026 14.167L18.336 14.167" stroke="#121212" stroke-width="0.916667" stroke-linecap="round"/>
<path d="M1.66797 14.167L5.0013 14.167" stroke="#121212" stroke-width="0.916667" stroke-linecap="round"/>
<path d="M18.3333 5.83398L15 5.83398" stroke="#121212" stroke-width="0.916667" stroke-linecap="round"/>
</svg>
