<svg width="20" height="20" viewBox="0 0 20 20" fill="none" xmlns="http://www.w3.org/2000/svg">
<path d="M12.833 19.3965C10.9242 19.5318 9.05241 19.5305 7.16699 19.3936V13.4287C7.16699 13.1734 7.29869 12.8757 7.54102 12.6328C7.78335 12.3899 8.07942 12.2579 8.33301 12.2578H11.667C11.9206 12.2579 12.2167 12.3899 12.459 12.6328C12.7013 12.8757 12.833 13.1734 12.833 13.4287V19.3965ZM13.833 13.4287C13.833 12.8489 13.5486 12.3102 13.166 11.9268C12.7835 11.5435 12.2464 11.2579 11.667 11.2578H8.33301C7.75357 11.2579 7.21646 11.5435 6.83398 11.9268C6.45136 12.3102 6.16699 12.8489 6.16699 13.4287V19.3086C5.76594 19.2694 5.36361 19.2263 4.95996 19.1748C3.7122 19.0156 2.86389 18.7052 2.27734 18.2295C1.7012 17.762 1.32127 17.089 1.10156 16.085C0.365546 12.7215 0.449066 9.68658 0.608398 8.1377L0.676758 7.58105C0.678873 7.57569 0.685317 7.55951 0.701172 7.53125C0.72941 7.48098 0.775855 7.41293 0.84375 7.32617C0.979585 7.15259 1.1788 6.93564 1.43652 6.68164C1.95047 6.17512 2.65979 5.55605 3.46191 4.89258C5.06393 3.5675 7.0036 2.09385 8.41504 1.04297C9.38276 0.322456 10.6964 0.31907 11.667 1.03516C13.0902 2.08532 15.0477 3.56077 16.6543 4.8877C17.4588 5.55221 18.1663 6.17178 18.6729 6.67773C18.9269 6.93147 19.1199 7.1467 19.248 7.31738C19.3121 7.40271 19.3535 7.4678 19.377 7.51367C19.3853 7.52994 19.3891 7.54148 19.3916 7.54785C19.4789 8.86347 19.7236 12.2714 18.9707 16.0957C18.7728 17.1006 18.3942 17.7714 17.8154 18.2363C17.2241 18.7114 16.3651 19.0187 15.1152 19.1748C14.6853 19.2285 14.2579 19.2731 13.833 19.3135V13.4287Z" stroke="white" stroke-linecap="round" stroke-linejoin="round"/>
</svg>
