<svg width="17" height="17" viewBox="0 0 17 17" fill="none" xmlns="http://www.w3.org/2000/svg">
<path d="M1.375 11C1.375 9.05547 1.375 8.08321 1.97909 7.47911C2.58318 6.875 3.55545 6.875 5.5 6.875H11C12.9445 6.875 13.9168 6.875 14.5209 7.47911C15.125 8.08321 15.125 9.05547 15.125 11C15.125 12.9445 15.125 13.9168 14.5209 14.5209C13.9168 15.125 12.9445 15.125 11 15.125H5.5C3.55545 15.125 2.58318 15.125 1.97909 14.5209C1.375 13.9168 1.375 12.9445 1.375 11Z" stroke="black" stroke-opacity="0.8" stroke-linecap="round" stroke-linejoin="round"/>
<path d="M4.125 6.875V5.5C4.125 3.22182 5.97182 1.375 8.25 1.375C10.5282 1.375 12.375 3.22182 12.375 5.5V6.875" stroke="black" stroke-opacity="0.8" stroke-linecap="round" stroke-linejoin="round"/>
<path d="M5.5 11H5.50619M8.24381 11H8.25M10.9938 11H11" stroke="black" stroke-opacity="0.8" stroke-linecap="round" stroke-linejoin="round"/>
</svg>
