<svg width="43" height="43" viewBox="0 0 43 43" fill="none" xmlns="http://www.w3.org/2000/svg">
<path d="M38.017 18.3244L36.2969 25.6612C34.8225 31.9975 31.9089 34.5601 26.4326 34.0335C25.555 33.9633 24.6072 33.8054 23.5892 33.5596L20.6404 32.8575C13.3212 31.1199 11.057 27.5042 12.7771 20.1674L14.4972 12.8131C14.8482 11.3211 15.2695 10.0223 15.7961 8.95161C17.8496 4.70401 21.3425 3.56312 27.2049 4.94973L30.1361 5.63427C37.4904 7.35437 39.7371 10.9877 38.017 18.3244Z" stroke="#919299" stroke-width="2" stroke-linecap="round" stroke-linejoin="round"/>
<path d="M26.4339 34.0336C25.3457 34.7708 23.9767 35.3851 22.3092 35.9292L19.536 36.8419C12.5678 39.0886 8.89941 37.2105 6.63519 30.2423L4.38853 23.3093C2.14186 16.3411 4.00238 12.6551 10.9706 10.4085L13.7438 9.49577C14.4634 9.2676 15.148 9.07452 15.7974 8.95166C15.2708 10.0223 14.8496 11.3212 14.4985 12.8131L12.7784 20.1674C11.0583 27.5042 13.3225 31.1199 20.6418 32.8576L23.5905 33.5597C24.6085 33.8054 25.5563 33.9634 26.4339 34.0336Z" stroke="#919299" stroke-width="2" stroke-linecap="round" stroke-linejoin="round"/>
<path d="M22.1855 14.9722L30.6983 17.1311" stroke="#919299" stroke-width="2" stroke-linecap="round" stroke-linejoin="round"/>
<path d="M20.4648 21.7646L25.5549 23.0635" stroke="#919299" stroke-width="2" stroke-linecap="round" stroke-linejoin="round"/>
</svg>
