<svg width="122" height="89" viewBox="0 0 122 89" fill="none" xmlns="http://www.w3.org/2000/svg">
<g filter="url(#filter0_d_40010478_2865)">
<rect x="2.92578" y="1.4624" width="97" height="74.1188" rx="10.3009" fill="white" shape-rendering="crispEdges"/>
<rect x="13.2266" y="11.7632" width="13.9059" height="13.9059" rx="5.15044" fill="#F1F3FF"/>
<rect x="30.9258" y="14.4243" width="12.0177" height="3.43363" rx="1.71681" fill="#F1F3FF"/>
<rect x="30.9258" y="20.4331" width="21.4602" height="2.57522" rx="1.28761" fill="#F1F3FF"/>
<rect x="77.6074" y="16.9995" width="12.0177" height="3.43363" rx="1.71681" fill="#F1F3FF"/>
<rect x="13.2266" y="29.9609" width="22.9377" height="14.5929" rx="5.15044" fill="#F1F3FF"/>
<rect x="39.957" y="29.9609" width="22.9377" height="14.5929" rx="5.15044" fill="#F1F3FF"/>
<rect x="66.6875" y="29.9609" width="22.9377" height="14.5929" rx="5.15044" fill="#F1F3FF"/>
<rect x="13.2266" y="48.8457" width="36.3029" height="16.4342" rx="5.15044" fill="#F1F3FF"/>
<rect x="53.3223" y="48.8457" width="36.3029" height="16.4342" rx="5.15044" fill="#F1F3FF"/>
</g>
<rect x="111.66" y="8.87354" width="58.2656" height="59.2969" rx="6.1875" fill="white"/>
<rect x="117.848" y="15.061" width="7.21875" height="2.0625" rx="1.03125" fill="#F1F3FF"/>
<rect x="117.848" y="18.6704" width="12.8906" height="1.54688" rx="0.773438" fill="#F1F3FF"/>
<rect x="117.848" y="22.7954" width="45.8906" height="8.76562" rx="3.09375" fill="#F1F3FF"/>
<rect x="117.848" y="34.1392" width="45.8906" height="8.76562" rx="3.09375" fill="#F1F3FF"/>
<rect x="117.848" y="45.4829" width="45.8906" height="16.5" rx="3.09375" fill="#F1F3FF"/>
<defs>
<filter id="filter0_d_40010478_2865" x="0.00083828" y="-6.91414e-05" width="111.625" height="88.7434" filterUnits="userSpaceOnUse" color-interpolation-filters="sRGB">
<feFlood flood-opacity="0" result="BackgroundImageFix"/>
<feColorMatrix in="SourceAlpha" type="matrix" values="0 0 0 0 0 0 0 0 0 0 0 0 0 0 0 0 0 0 127 0" result="hardAlpha"/>
<feOffset dx="4.38741" dy="5.84988"/>
<feGaussianBlur stdDeviation="3.65618"/>
<feComposite in2="hardAlpha" operator="out"/>
<feColorMatrix type="matrix" values="0 0 0 0 0 0 0 0 0 0 0 0 0 0 0 0 0 0 0.02 0"/>
<feBlend mode="normal" in2="BackgroundImageFix" result="effect1_dropShadow_40010478_2865"/>
<feBlend mode="normal" in="SourceGraphic" in2="effect1_dropShadow_40010478_2865" result="shape"/>
</filter>
</defs>
</svg>
