<svg width="16" height="16" viewBox="0 0 16 16" fill="none" xmlns="http://www.w3.org/2000/svg">
<g clip-path="url(#clip0_40012184_1393)">
<path d="M2.66602 14.667H13.3327" stroke="black" stroke-opacity="0.6" stroke-width="1.5" stroke-linecap="round"/>
<path d="M9.25805 2.44163L9.75239 1.94729C10.5714 1.12825 11.8994 1.12825 12.7184 1.94729C13.5374 2.76633 13.5374 4.09426 12.7184 4.9133L12.2241 5.40764M9.25805 2.44163C9.25805 2.44163 9.31984 3.49209 10.2467 4.41897C11.1736 5.34585 12.2241 5.40764 12.2241 5.40764M9.25805 2.44163L4.71339 6.98629C4.40557 7.29411 4.25166 7.44802 4.11929 7.61772C3.96315 7.81791 3.82929 8.03451 3.72006 8.26369C3.62747 8.45797 3.55864 8.66446 3.42098 9.07745L2.83765 10.8275M12.2241 5.40764L7.6794 9.9523C7.37158 10.2601 7.21767 10.414 7.04797 10.5464C6.84778 10.7025 6.63118 10.8364 6.402 10.9456C6.20772 11.0382 6.00123 11.107 5.58824 11.2447L3.83824 11.828M3.83824 11.828L3.41046 11.9706C3.20723 12.0384 2.98317 11.9855 2.83169 11.834C2.6802 11.6825 2.62731 11.4585 2.69505 11.2552L2.83765 10.8275M3.83824 11.828L2.83765 10.8275" stroke="black" stroke-opacity="0.6" stroke-width="1.5"/>
</g>
<defs>
<clipPath id="clip0_40012184_1393">
<rect width="16" height="16" fill="white"/>
</clipPath>
</defs>
</svg>
