<svg width="20" height="22" viewBox="0 0 20 22" fill="none" xmlns="http://www.w3.org/2000/svg">
<path d="M7.22435 12.8335H3.33268C2.41602 12.8335 1.66602 13.6585 1.66602 14.6668V20.1668H7.22435V12.8335Z" stroke="black" stroke-opacity="0.8" stroke-miterlimit="10" stroke-linecap="round" stroke-linejoin="round"/>
<path d="M11.1085 9.1665H8.88346C7.9668 9.1665 7.2168 9.9915 7.2168 10.9998V20.1665H12.7751V10.9998C12.7751 9.9915 12.0335 9.1665 11.1085 9.1665Z" stroke="black" stroke-opacity="0.8" stroke-miterlimit="10" stroke-linecap="round" stroke-linejoin="round"/>
<path d="M16.6671 15.5835H12.7754V20.1668H18.3337V17.4168C18.3337 16.4085 17.5837 15.5835 16.6671 15.5835Z" stroke="black" stroke-opacity="0.8" stroke-miterlimit="10" stroke-linecap="round" stroke-linejoin="round"/>
<path d="M10.4325 1.89758L10.8742 2.86925C10.9325 3.00675 11.0909 3.13508 11.2242 3.15341L12.0242 3.30008C12.5325 3.39175 12.6575 3.80423 12.2909 4.1984L11.6659 4.8859C11.5575 5.00506 11.4992 5.22507 11.5325 5.3809L11.7075 6.22425C11.8492 6.89342 11.5242 7.15009 10.9909 6.80175L10.2409 6.31592C10.1075 6.22426 9.88255 6.22426 9.74922 6.31592L8.99921 6.80175C8.46588 7.15009 8.14088 6.89342 8.28255 6.22425L8.45755 5.3809C8.49088 5.22507 8.43255 4.9959 8.32422 4.8859L7.70755 4.20757C7.34088 3.80424 7.45755 3.4009 7.97421 3.30923L8.77421 3.16259C8.90755 3.13509 9.06588 3.00676 9.12422 2.87842L9.56588 1.90673C9.80755 1.37506 10.1909 1.37508 10.4325 1.89758Z" stroke="black" stroke-opacity="0.8" stroke-linecap="round" stroke-linejoin="round"/>
</svg>
