<svg width="20" height="20" viewBox="0 0 20 20" fill="none" xmlns="http://www.w3.org/2000/svg">
<path d="M5.23744 15.8333C3.265 15.8333 1.66602 14.2532 1.66602 12.3039C1.66602 10.3547 3.265 8.77451 5.23744 8.77451C5.47421 8.77451 5.7056 8.79728 5.92948 8.84072M11.9835 6.68934C12.48 6.51593 13.0142 6.42157 13.5708 6.42157C14.1163 6.42157 14.6405 6.51223 15.1286 6.67915M5.92948 8.84072C5.73857 8.3315 5.63427 7.78073 5.63427 7.20588C5.63427 4.6069 7.76625 2.5 10.3962 2.5C12.8459 2.5 14.8636 4.32809 15.1286 6.67915M5.92948 8.84072C6.39984 8.93199 6.83708 9.1145 7.22157 9.36884M15.1286 6.67915C16.9935 7.31686 18.3327 9.0676 18.3327 11.1275C18.3327 13.3833 16.7265 15.2684 14.5827 15.7269" stroke="black" stroke-width="1.9375" stroke-linecap="round"/>
<path d="M10.0007 13.3335V18.3335M10.0007 13.3335L11.6673 15.0002M10.0007 13.3335L8.33398 15.0002" stroke="black" stroke-width="1.9375" stroke-linecap="round" stroke-linejoin="round"/>
</svg>
