<svg width="44" height="44" viewBox="0 0 44 44" fill="none" xmlns="http://www.w3.org/2000/svg">
<path d="M19.1045 4.43652C20.8826 3.41013 23.0824 3.41019 24.8789 4.43652L35.7695 10.7256C37.5477 11.7706 38.6475 13.6589 38.6475 15.7305V28.2705C38.6474 30.3237 37.5477 32.2304 35.7695 33.2754L24.8789 39.5635C23.1006 40.59 20.9011 40.59 19.1045 39.5635L8.21387 33.2754C6.43578 32.2487 5.33604 30.342 5.33594 28.2705V15.7305C5.33594 13.6773 6.43581 11.7706 8.21387 10.7256L19.1045 4.43652ZM22.001 28.3252C21.2416 28.3252 20.626 28.9408 20.626 29.7002V29.8838C20.6262 30.643 21.2417 31.2588 22.001 31.2588C22.7602 31.2588 23.3758 30.643 23.376 29.8838V29.7002C23.376 28.9408 22.7604 28.3252 22.001 28.3252ZM22.001 12.833C21.2417 12.833 20.6262 13.4488 20.626 14.208V23.833C20.626 24.5924 21.2416 25.208 22.001 25.208C22.7604 25.208 23.376 24.5924 23.376 23.833V14.208C23.3758 13.4488 22.7602 12.833 22.001 12.833Z" fill="black"/>
</svg>
