<svg width="28" height="24" viewBox="0 0 28 24" fill="none" xmlns="http://www.w3.org/2000/svg">
<path d="M19.3379 7.89221C16.7542 8.02719 14.5074 8.81044 12.6833 10.58C10.8404 12.3678 9.99907 14.5585 10.229 17.2743C9.21914 17.1492 8.29931 17.0115 7.37425 16.9336C7.05476 16.9068 6.67563 16.945 6.40501 17.0977C5.50674 17.6045 4.6456 18.1768 3.62493 18.8148C3.8122 17.9678 3.93343 17.226 4.14802 16.5126C4.30584 15.9882 4.23274 15.6964 3.74967 15.3549C0.648075 13.1651 -0.659321 9.88798 0.319092 6.51406C1.2243 3.39283 3.44726 1.49993 6.46776 0.513189C10.5905 -0.833476 15.2236 0.540186 17.7306 3.81337C18.636 4.99571 19.1912 6.32274 19.3379 7.89221ZM7.4466 6.84091C7.47039 6.22382 6.93568 5.66786 6.30055 5.6493C5.65026 5.6302 5.11544 6.12714 5.09644 6.76793C5.07724 7.41735 5.57397 7.93777 6.22895 7.95442C6.87827 7.97085 7.42259 7.47327 7.4466 6.84091ZM13.6508 5.64887C13.0133 5.66061 12.4746 6.20354 12.4859 6.82309C12.4976 7.46527 13.026 7.96765 13.6815 7.95976C14.3387 7.95186 14.8371 7.44414 14.831 6.78841C14.8255 6.14475 14.2994 5.63703 13.6508 5.64887Z" fill="#2DC100"/>
<path d="M25.1425 23.9997C24.3244 23.6354 23.5739 23.0888 22.7749 23.0054C21.9789 22.9222 21.1422 23.3814 20.3095 23.4666C17.7729 23.7261 15.5004 23.0191 13.6266 21.2863C10.0629 17.99 10.5721 12.9359 14.6952 10.2347C18.3597 7.83393 23.7339 8.63425 26.3175 11.9654C28.5722 14.8721 28.3072 18.7307 25.5548 21.1726C24.7583 21.8794 24.4717 22.4609 24.9827 23.3926C25.077 23.5646 25.0878 23.7824 25.1425 23.9997ZM15.8296 14.9829C16.3505 14.9834 16.7793 14.5758 16.7991 14.0614C16.8199 13.5167 16.3819 13.0599 15.8365 13.0576C15.2965 13.0552 14.8442 13.5184 14.863 14.0549C14.8807 14.5676 15.3125 14.9822 15.8296 14.9829ZM21.8332 13.0598C21.3278 13.0563 20.8984 13.47 20.8778 13.9806C20.8559 14.5266 21.2803 14.975 21.8207 14.9764C22.3434 14.9781 22.7563 14.5828 22.7753 14.0627C22.7956 13.5154 22.371 13.0635 21.8332 13.0598Z" fill="#2DC100"/>
</svg>
